<?xml version="1.0" standalone="no"?><!DOCTYPE svg PUBLIC "-//W3C//DTD SVG 1.1//EN" "http://www.w3.org/Graphics/SVG/1.1/DTD/svg11.dtd"><svg t="1748860704094" class="icon" viewBox="0 0 1024 1024" version="1.1" xmlns="http://www.w3.org/2000/svg" p-id="3515" xmlns:xlink="http://www.w3.org/1999/xlink" width="200" height="200"><path d="M360.96 353.706667A42.666667 42.666667 0 1 0 298.666667 414.293333L398.506667 512 298.666667 609.706667a42.666667 42.666667 0 0 0 0 60.586666 42.666667 42.666667 0 0 0 60.586666 0l128-128a42.666667 42.666667 0 0 0 0-60.586666z m362.666667 128l-128-128a42.666667 42.666667 0 0 0-60.586667 60.586666l98.133333 97.706667-98.133333 97.706667a42.666667 42.666667 0 0 0 0 60.586666 42.666667 42.666667 0 0 0 60.586667 0l128-128a42.666667 42.666667 0 0 0 1.706666-60.586666z" p-id="3516"></path></svg>