<?xml version="1.0" standalone="no"?><!DOCTYPE svg PUBLIC "-//W3C//DTD SVG 1.1//EN" "http://www.w3.org/Graphics/SVG/1.1/DTD/svg11.dtd"><svg t="1748860681839" class="icon" viewBox="0 0 1024 1024" version="1.1" xmlns="http://www.w3.org/2000/svg" p-id="36930" xmlns:xlink="http://www.w3.org/1999/xlink" width="200" height="200"><path d="M488.96 353.706667a42.666667 42.666667 0 0 0-60.586667 0l-128 128a42.666667 42.666667 0 0 0 0 60.586666l128 128a42.666667 42.666667 0 0 0 60.586667 0 42.666667 42.666667 0 0 0 0-60.586666L390.826667 512l98.133333-97.706667a42.666667 42.666667 0 0 0 0-60.586666z m136.533333 158.293333L725.333333 414.293333a42.666667 42.666667 0 0 0-60.586666-60.586666l-128 128a42.666667 42.666667 0 0 0 0 60.586666l128 128a42.666667 42.666667 0 0 0 60.586666 0 42.666667 42.666667 0 0 0 0-60.586666z" p-id="36931"></path></svg>