<?xml version="1.0" standalone="no"?><!DOCTYPE svg PUBLIC "-//W3C//DTD SVG 1.1//EN" "http://www.w3.org/Graphics/SVG/1.1/DTD/svg11.dtd"><svg t="1748496347967" class="icon" viewBox="0 0 1024 1024" version="1.1" xmlns="http://www.w3.org/2000/svg" p-id="12456" xmlns:xlink="http://www.w3.org/1999/xlink" width="200" height="200"><path d="M314.51648 629.07904h380.86656l107.20256 124.12928c6.58944 7.53152 15.99488 12.23168 26.33728 12.23168 18.81088 0 34.79552-15.04768 34.79552-34.80064v-101.56032h23.51104c47.02208 0 85.5808-38.55872 85.5808-85.5808V204.9536c0-47.02208-38.55872-85.57568-85.5808-85.57568H314.51648c-47.02208 0-85.57568 38.55872-85.57568 85.57568v338.54464c0.93696 47.02208 38.5536 85.5808 85.57568 85.5808z m-37.61664-423.18336c0-21.62688 16.92672-38.55872 38.55872-38.55872h572.70272c21.632 0 38.55872 16.93184 38.55872 38.55872v338.54464c0 21.632-16.93184 38.55872-38.55872 38.55872h-47.02208c-13.16352 0-23.51104 10.3424-23.51104 23.51104v91.21792l-92.15488-107.20768c-4.7104-4.70016-11.28448-8.45824-17.87392-8.45824H314.51648c-21.62688 0-38.55872-16.93184-38.55872-38.55872V205.89568h0.94208z m51.72224 562.36544l-107.20256 124.13952c-6.58432 7.51104-15.98976 12.22144-26.33216 12.22144-3.7632 0-8.46336-0.94208-12.22656-1.87904-14.1056-4.7104-22.56896-17.8688-22.56896-31.97952v-102.5024h-23.51104c-47.02208 0-85.57568-38.55872-85.57568-85.5808V344.13568C51.2 297.1136 89.75872 258.56 136.77568 258.56a23.28576 23.28576 0 0 1 23.51104 23.51104c0 13.16864-10.34752 23.51104-23.51104 23.51104-21.632 0-38.5536 16.93184-38.5536 38.55872v338.54464c0 21.632 16.92672 38.55872 38.5536 38.55872h47.02208c13.16352 0 23.51104 10.3424 23.51104 23.51104v91.21792l92.16-107.20768c4.70016-4.70016 11.28448-8.46848 17.8688-8.46848h346.07104a23.28576 23.28576 0 0 1 23.51104 23.51104c0 13.16864-10.34752 23.51104-23.51104 23.51104H328.62208v0.94208z m240.7424-385.56672c0-17.8688 14.1056-31.9744 31.9744-31.9744s31.9744 14.1056 31.9744 31.9744-14.1056 31.9744-31.9744 31.9744-31.9744-14.11072-31.9744-31.9744z m-106.2656 0c0-17.8688 14.1056-31.9744 31.9744-31.9744s31.97952 14.1056 31.97952 31.9744-14.11072 31.9744-31.97952 31.9744-31.9744-14.11072-31.9744-31.9744z m212.5312 0c0-17.8688 14.11072-31.9744 31.96928-31.9744 17.87392 0 31.97952 14.1056 31.97952 31.9744s-14.1056 31.9744-31.97952 31.9744c-17.85856-0.00512-31.96928-14.11072-31.96928-31.9744z" p-id="12457" fill="#dbdbdb"></path></svg>