<?xml version="1.0" standalone="no"?><!DOCTYPE svg PUBLIC "-//W3C//DTD SVG 1.1//EN" "http://www.w3.org/Graphics/SVG/1.1/DTD/svg11.dtd"><svg t="1748500311815" class="icon" viewBox="0 0 1024 1024" version="1.1" xmlns="http://www.w3.org/2000/svg" p-id="23069" xmlns:xlink="http://www.w3.org/1999/xlink" width="200" height="200"><path d="M512.576308 0.01216c70.782452 0 137.149 13.503705 199.227642 40.511114a520.948604 520.948604 0 0 1 162.044455 109.629601c46.078992 46.014993 82.558194 100.221808 109.629602 162.620443 27.007409 62.462634 40.511114 129.021178 40.511113 199.803629a493.365208 493.365208 0 0 1-40.511113 199.227642 520.948604 520.948604 0 0 1-109.629602 162.044456 520.948604 520.948604 0 0 1-162.044455 109.629601A493.365208 493.365208 0 0 1 512.576308 1023.98976a497.397119 497.397119 0 0 1-199.80363-40.511114 519.220642 519.220642 0 0 1-162.620442-109.629601 520.948604 520.948604 0 0 1-109.629602-162.044456A493.365208 493.365208 0 0 1 0.01152 512.576947c0-70.782452 13.503705-137.340996 40.511114-199.803629a519.220642 519.220642 0 0 1 109.629602-162.620443A519.220642 519.220642 0 0 1 312.772678 40.523274 497.397119 497.397119 0 0 1 512.640306 0.01216z m62.526632 441.59034a53.310834 53.310834 0 0 0-18.047605-40.767108 63.678607 63.678607 0 0 0-44.79902-16.639636c-17.855609 0-32.959279 5.567878-45.439006 16.639636a52.606849 52.606849 0 0 0-18.559594 40.767108v337.464618c0 16.063649 6.207864 28.991366 18.559594 38.719153 12.479727 9.791786 27.583397 14.655679 45.439006 14.655679 17.855609 0 33.023278-5.055889 45.439006-15.103669a48.190946 48.190946 0 0 0 18.559594-39.295141L575.166938 441.6025z m-62.398635-121.405344a61.054664 61.054664 0 0 0 44.991016-18.75159 61.950645 61.950645 0 0 0 18.559594-45.311009 61.950645 61.950645 0 0 0-18.559594-45.24701 61.054664 61.054664 0 0 0-44.991016-18.75159 62.526632 62.526632 0 0 0-45.439006 18.75159 61.182662 61.182662 0 0 0-19.007584 45.24701c0 17.663614 6.335861 32.767283 19.071582 45.311009a62.526632 62.526632 0 0 0 45.439006 18.75159z" fill="#ed6ea0" p-id="23070"></path></svg>